<?xml version="1.0" standalone="no"?><!DOCTYPE svg PUBLIC "-//W3C//DTD SVG 1.1//EN" "http://www.w3.org/Graphics/SVG/1.1/DTD/svg11.dtd"><svg t="1593336021189" class="icon" viewBox="0 0 1024 1024" version="1.1" xmlns="http://www.w3.org/2000/svg" p-id="2743" xmlns:xlink="http://www.w3.org/1999/xlink" width="64" height="64"><defs><style type="text/css"></style></defs><path d="M260.9 186.1v-64c0-17.6 14.4-32 32-32h384c17.6 0 32 14.4 32 32v64c0 17.6-14.4 32-32 32h-384c-17.6 0-32-14.4-32-32z" p-id="2744" fill="#BFCBD9"></path><path d="M772.9 122.1v64c0 52.9-43.1 96-96 96h-384c-52.9 0-96-43.1-96-96v-64c-35.2 0-64 26.6-64 59.1V831c0 32.5 28.8 59.1 64 59.1h340l14.1-28.6 37.7-76.4c-19.7-48.8-16-104.7 11.1-150.8 15.1-25.7 36.8-47.2 62.7-62 25.9-14.8 55.3-22.6 85.1-22.6h3.6c22.8 0.5 44.8 5.3 65.6 14.5 7 3.1 13.8 6.6 20.2 10.6V181.2c-0.1-32.5-28.9-59.1-64.1-59.1zM667.5 561c-5.8 5.8-13.8 9.4-22.6 9.4h-320c-17.6 0-32-14.4-32-32 0-8.8 3.6-16.8 9.4-22.6s13.8-9.4 22.6-9.4h320c17.6 0 32 14.4 32 32 0 8.8-3.6 16.8-9.4 22.6z m0-127.7c-5.8 5.8-13.8 9.4-22.6 9.4h-320c-17.6 0-32-14.4-32-32 0-8.8 3.6-16.8 9.4-22.6 5.8-5.8 13.8-9.4 22.6-9.4h320c17.6 0 32 14.4 32 32 0 8.8-3.6 16.8-9.4 22.6z" p-id="2745" fill="#BFCBD9"></path><path d="M749.8 613.6c-38.9-0.8-75.1 19.5-94.8 53-19.7 33.5-19.7 75.1 0 108.6s55.9 53.8 94.8 53c58.4-1.2 105.1-48.9 105.1-107.3s-46.7-106.1-105.1-107.3z m40.9 171.1L749.5 762 708 784.3l8.8-46.2-34-32.6 46.7-5.9 20.5-42.4 20.1 42.6 46.6 6.4-34.3 32.3 8.3 46.2zM655 795.3l-46.6 94.5 58.7-4.8 30.9 48.9 45.6-92.5c-34.8-1.8-67.1-18.6-88.6-46.1z" p-id="2746" fill="#BFCBD9"></path><path d="M844.5 795.3l46.6 94.5-58.7-4.8-30.9 48.9-45.5-92.5c34.8-1.8 67.1-18.6 88.5-46.1z" p-id="2747" fill="#BFCBD9"></path></svg>