<?xml version="1.0" standalone="no"?><!DOCTYPE svg PUBLIC "-//W3C//DTD SVG 1.1//EN" "http://www.w3.org/Graphics/SVG/1.1/DTD/svg11.dtd"><svg t="1593336409055" class="icon" viewBox="0 0 1024 1024" version="1.1" xmlns="http://www.w3.org/2000/svg" p-id="5304" xmlns:xlink="http://www.w3.org/1999/xlink" width="64" height="64"><defs><style type="text/css"></style></defs><path d="M146.5 173.5m-20 0a20 20 0 1 0 40 0 20 20 0 1 0-40 0Z" p-id="5305" fill="#BFCBD9"></path><path d="M206.5 173.5m-20 0a20 20 0 1 0 40 0 20 20 0 1 0-40 0Z" p-id="5306" fill="#BFCBD9"></path><path d="M266.5 173.5m-20 0a20 20 0 1 0 40 0 20 20 0 1 0-40 0Z" p-id="5307" fill="#BFCBD9"></path><path d="M534.5 802.5h-417c-27.6 0-50-22.4-50-50v-349c0-5.5 4.5-10 10-10s10 4.5 10 10v349c0 16.5 13.5 30 30 30h417c5.5 0 10 4.5 10 10s-4.5 10-10 10z m365-258c-5.5 0-10-4.5-10-10v-386c0-16.5-13.5-30-30-30h-97c-5.5 0-10-4.5-10-10s4.5-10 10-10h97c27.6 0 50 22.4 50 50v386c0 5.5-4.5 10-10 10z m-822-254c-5.5 0-10-4.5-10-10v-132c0-27.6 22.4-50 50-50h499c5.5 0 10 4.5 10 10s-4.5 10-10 10h-499c-16.5 0-30 13.5-30 30v132c0 5.5-4.5 10-10 10z" p-id="5308" fill="#BFCBD9"></path><path d="M686.5 109.5m-16 0a16 16 0 1 0 32 0 16 16 0 1 0-32 0Z" p-id="5309" fill="#BFCBD9"></path><path d="M77.5 342.5m-16 0a16 16 0 1 0 32 0 16 16 0 1 0-32 0Z" p-id="5310" fill="#BFCBD9"></path><path d="M221.5 610.5c-2.1 0-4.2-0.7-6.1-2.1-4.4-3.4-5.2-9.6-1.9-14l158-207c1.8-2.4 4.6-3.8 7.6-3.9 3-0.1 5.9 1.1 7.8 3.3l145.2 162 266.5-244.7c4.1-3.7 10.4-3.5 14.1 0.6 3.7 4.1 3.5 10.4-0.6 14.1l-274 251.5c-2 1.8-4.6 2.7-7.2 2.6-2.7-0.1-5.2-1.3-7-3.3L380.1 409.2 229.4 606.6c-1.9 2.5-4.9 3.9-7.9 3.9z" p-id="5311" fill="#BFCBD9"></path><path d="M794 456.5c-0.5 0-1 0-1.5-0.1-5.5-0.8-9.2-5.9-8.4-11.4l19.7-132.7-139.6 9.2c-5.5 0.4-10.3-3.8-10.6-9.3-0.4-5.5 3.8-10.3 9.3-10.6l152-10c3-0.2 6 1 8 3.2s3 5.3 2.5 8.2l-21.5 145c-0.7 4.9-5 8.5-9.9 8.5zM474.5 717.5h-313c-5.5 0-10-4.5-10-10v-374c0-5.5 4.5-10 10-10s10 4.5 10 10v364h303c5.5 0 10 4.5 10 10s-4.5 10-10 10zM741.5 717.5h-192c-2.7 0-5.2-1.1-7.1-2.9-1.9-1.9-2.9-4.4-2.9-7.1 0.3-53.7 21.4-104.2 59.5-142.1 38.1-37.9 88.7-58.8 142.5-58.8 5.5 0 10 4.5 10 10v191c0 5.4-4.5 9.9-10 9.9z m-181.7-20h171.7V526.8c-91.9 5-166.1 78.8-171.7 170.7z" p-id="5312" fill="#BFCBD9"></path><path d="M771.5 930.5c-105.3 0-191-85.7-191-191v-0.9c0-5.5 4.5-10 10-10h171V558.5c0-5.5 4.5-10 10-10 105.3 0 191 85.7 191 191s-85.7 191-191 191zM600.7 748.6c4.7 90.1 79.5 161.9 170.8 161.9 94.3 0 171-76.7 171-171 0-90.9-71.3-165.5-161-170.7v169.8c0 5.5-4.5 10-10 10H600.7zM888.5 241.5h-800c-5.5 0-10-4.5-10-10s4.5-10 10-10h800c5.5 0 10 4.5 10 10s-4.5 10-10 10z" p-id="5313" fill="#BFCBD9"></path></svg>